<svg width="283" height="64" viewBox="0 0 283 64" fill="none" 
    xmlns="http://www.w3.org/2000/svg">
    <g id="Credifit" stroke="none" strokeWidth="1" fill="none" fillRule="evenodd">
      <g id="Arte-Final-Credifit-RGB">
        <g id="Group-8" transform="translate(0.000000, 10.275600)" fill="#00919D">
          <path
            d="M73.6124,12.8491 C78.6918,12.8491 83.34,14.6888 86.9304,17.7372 L82.0528,21.3953 C79.6629,19.718 76.752,18.733 73.6124,18.733 C65.4889,18.733 58.9011,25.3187 58.9011,33.4423 C58.9011,41.5672 65.4889,48.1532 73.6124,48.1532 C77.6739,48.1532 81.3512,46.5046 84.0121,43.844 L88.1734,48.005 C84.4472,51.7308 79.299,54.0371 73.6124,54.0371 C62.2389,54.0371 53.0175,44.8154 53.0175,33.4423 C53.0175,22.0688 62.2389,12.8491 73.6124,12.8491"
            id="Fill-1"
          />
          <path
            d="M98.1635,13.3622 L98.1635,18.8852 C101.8908,15.156 107.0414,12.8491 112.7302,12.8491 C119.8222,12.8491 126.0754,16.4355 129.7792,21.8928 C128.4395,23.743 127.4006,25.8244 126.7325,28.0661 L126.4938,28.2449 C124.3942,22.6865 119.0243,18.7327 112.7302,18.7327 C105.3034,18.7327 99.1636,24.2373 98.1635,31.3886 L98.1635,33.4426 L98.1635,35.4971 L98.1635,53.9912 L92.1362,53.9912 L92.1362,33.4426 L92.1362,13.3622 L98.1635,13.3622 Z"
            id="Fill-2"
          />
          <path
            d="M207.1763,1.6906 L207.1763,18.9927 C203.4491,15.2634 198.2982,12.9566 192.6094,12.9566 C181.2365,12.9566 172.0157,22.1771 172.0157,33.55 C172.0157,44.9231 181.2365,54.144 192.6094,54.144 C203.8918,54.144 213.0546,45.07 213.2,33.8215 L213.2034,33.8241 L213.2034,33.55 L213.2034,1.6906 L207.1763,1.6906 Z M192.6094,18.8399 C184.4856,18.8399 177.8996,25.4262 177.8996,33.55 C177.8996,41.6738 184.4856,48.2601 192.6094,48.2601 C200.7335,48.2601 207.3195,41.6738 207.3195,33.55 C207.3195,25.4262 200.7335,18.8399 192.6094,18.8399 L192.6094,18.8399 Z"
            id="Fill-3"
          />
          <path
            d="M170.2052,35.0104 C170.1474,35.5237 170.0884,35.9986 170.0229,36.4481 L164.0699,36.4481 L163.268,36.4481 L151.4974,36.4481 L151.4974,30.4631 L151.5524,30.422 L164.0702,30.422 C162.6803,23.7432 156.7613,18.7242 149.6707,18.7242 C142.5779,18.7242 136.6586,23.7432 135.2682,30.422 L135.2824,30.422 C135.0808,31.3914 134.9748,32.396 134.9748,33.4255 C134.9748,34.4619 135.0828,35.4724 135.2866,36.4481 L135.2688,36.4481 C136.6039,42.8601 142.1127,47.7402 148.826,48.1206 L148.826,54.0102 C137.8443,53.5668 129.0756,44.5246 129.0756,33.434 C129.0756,22.0609 138.2973,12.8409 149.6707,12.8409 C161.0436,12.8409 170.2633,22.0609 170.2633,33.434 C170.2633,33.9641 170.2437,34.4894 170.2052,35.0104"
            id="Fill-4"
          />
          <polygon
            id="Fill-5"
            points="228.7778 22.4949 228.7778 54.121 222.3956 54.121 222.3956 22.4949"
          />
          <polygon
            id="Fill-6"
            points="228.7778 18.4022 228.7778 12.7451 222.3956 12.7451 222.3956 18.4022"
          />
          <path
            d="M22.5136,53.941 C16.8177,50.6046 12.3327,47.1135 9.0763,43.4979 C5.7393,39.7644 3.4266,36.0589 2.1133,32.3679 C1.0386,29.3145 0.5712,26.3466 0.7033,23.4465 L0.7047,23.417 L0.7056,23.3943 L0.7059,23.3881 L0.7076,23.3586 L0.709,23.3297 L0.7104,23.3005 L0.7121,23.2713 L0.7135,23.2421 L0.7141,23.229 L0.7152,23.2129 L0.7169,23.1837 L0.7183,23.1548 L0.7203,23.1253 L0.722,23.0964 L0.724,23.0672 L0.724,23.0643 L0.726,23.038 L0.7277,23.0088 L0.7297,22.9796 L0.7317,22.9507 L0.7336,22.9215 L0.7353,22.8997 L0.7356,22.8923 L0.7379,22.8631 L0.7402,22.8339 L0.7421,22.805 L0.7444,22.7758 L0.747,22.7469 L0.7492,22.7177 L0.7512,22.6885 L0.7538,22.6596 L0.7563,22.6304 L0.7589,22.6014 L0.7611,22.5723 L0.7614,22.5706 L0.764,22.5431 L0.7662,22.5141 L0.7691,22.4852 L0.7716,22.456 L0.7745,22.4271 L0.7764,22.4061 L0.7773,22.3979 L0.7801,22.3687 L0.783,22.3401 L0.7858,22.3109 L0.7886,22.2817 L0.7917,22.2531 L0.7929,22.242 L0.7949,22.2239 L0.7977,22.1947 L0.8008,22.166 L0.8039,22.1369 L0.8071,22.1077 L0.8102,22.079 L0.8105,22.0779 L0.8136,22.0498 L0.817,22.0209 L0.8235,21.9654 L0.8235,21.9631 L0.8269,21.9339 L0.8292,21.914 L0.8303,21.905 L0.834,21.8761 L0.8374,21.8471 L0.8411,21.818 L0.8448,21.789 L0.8482,21.7604 L0.8496,21.7502 L0.8521,21.7312 L0.8632,21.6445 L0.8671,21.6156 L0.8711,21.5866 C1.353,18.0771 2.4577,14.8558 4.1712,11.8876 C4.796,10.8056 5.4961,9.72 6.2969,8.6425 C7.109,7.5486 7.9538,6.5214 8.8515,5.5264 L8.8838,5.4887 L8.8917,5.4799 L8.9164,5.4513 L8.9323,5.4331 L8.949,5.4141 L8.9728,5.3869 L8.9816,5.377 L9.0131,5.3407 L9.0142,5.3399 L9.0471,5.3027 L9.0539,5.2948 L9.08,5.2656 L9.0947,5.2489 L9.1129,5.2288 L9.1355,5.203 L9.1457,5.1919 L9.1766,5.157 L9.1786,5.1551 L9.2115,5.1182 L9.2174,5.1117 L9.2447,5.0816 L9.2586,5.066 L9.2775,5.0451 L9.2997,5.021 L9.3107,5.0085 L9.3408,4.9756 L9.3439,4.9722 L9.377,4.9359 L9.3821,4.9303 L9.4102,4.8997 L9.4235,4.8852 L9.4437,4.8634 L9.4649,4.8404 L9.4771,4.8271 L9.5063,4.7956 L9.5103,4.7911 L9.544,4.7551 L9.548,4.7508 L9.5772,4.7194 L9.5896,4.7063 L9.6109,4.6834 L9.6313,4.6618 L9.6443,4.6477 L9.6727,4.6173 L9.6778,4.6119 L9.7115,4.5762 L9.7146,4.5731 L9.745,4.5405 L9.7563,4.5289 L9.7787,4.5051 L9.798,4.4849 L9.8124,4.4696 L9.8402,4.4407 L9.8462,4.4342 L9.8799,4.3988 L9.8819,4.3968 L9.9136,4.3636 L9.9241,4.3531 L9.9477,4.3285 L9.9658,4.3092 L9.9814,4.2933 L10.008,4.2655 L10.0151,4.2582 L10.0491,4.2233 L10.05,4.2222 L10.0829,4.1882 L10.0922,4.1788 L10.1169,4.1533 L10.1345,4.1354 L10.1767,4.0921 L10.1846,4.0836 L10.2186,4.049 L10.2527,4.0144 L10.2609,4.0059 L10.2867,3.9795 L10.3034,3.9628 L10.3207,3.9449 L10.3456,3.92 L10.3547,3.9104 L10.3879,3.8772 L10.3887,3.8761 L10.423,3.8415 L10.4301,3.8344 L10.457,3.8075 L10.4726,3.7916 L10.4911,3.7732 L10.5149,3.7491 L10.5254,3.7389 L10.5571,3.7066 L10.5594,3.7046 L10.5934,3.6706 L10.5996,3.6643 L10.6274,3.6365 L10.6421,3.6218 L10.6617,3.6025 L10.6847,3.5796 L10.6957,3.5685 L10.7269,3.5376 L10.73,3.5345 L10.764,3.5005 L10.7694,3.4954 L10.7983,3.4665 L10.8542,3.4112 L10.8664,3.399 L10.8967,3.3695 L10.9004,3.3655 L10.9347,3.3318 L10.9389,3.3276 L10.969,3.2981 L10.9814,3.2859 L11.003,3.2646 L11.0172,3.2507 L11.0237,3.2442 L11.5311,2.7487 L11.5447,2.736 L11.5583,2.7235 L11.5716,2.711 L11.5745,2.7088 L11.5986,2.6861 L11.6116,2.6739 L11.6175,2.6688 L11.6249,2.6617 L11.638,2.6498 L11.6606,2.6291 L11.6637,2.6257 L11.6813,2.6098 L11.6986,2.5937 L11.8026,2.499 L11.8199,2.4831 L11.8316,2.4726 L11.8372,2.4672 L11.8545,2.4517 L11.8718,2.4363 L11.8741,2.4341 L11.8888,2.4205 L11.9058,2.4052 L11.9166,2.3955 L11.9231,2.3896 L11.9404,2.374 L11.9574,2.3587 L11.9588,2.3575 L11.9747,2.3431 L11.9917,2.3281 L12.0014,2.3196 L12.0087,2.3125 L12.0257,2.2974 L12.0427,2.2821 L12.0433,2.2816 L12.0597,2.2668 L12.0768,2.2518 L12.0853,2.2442 L12.0938,2.2365 L12.098,2.2325 L12.1272,2.207 L12.1278,2.2062 L12.1448,2.1911 L12.1618,2.1761 L12.1689,2.1699 L12.1785,2.1611 L12.1955,2.1464 L12.2106,2.1328 L12.2123,2.1313 L12.246,2.1016 L12.2522,2.0962 L12.2627,2.0868 L12.2797,2.0721 L12.2936,2.0596 L12.2964,2.0574 L12.3132,2.0426 L12.3299,2.0279 L12.335,2.0233 L12.3466,2.0131 L12.3636,1.9987 L12.3764,1.9873 L12.3801,1.9842 L12.3968,1.9695 L12.4135,1.955 L12.4178,1.9513 L12.4302,1.9406 L12.447,1.9261 L12.4589,1.9159 L12.4634,1.9119 L12.4801,1.8975 L12.4969,1.8833 L12.5,1.8805 L12.5133,1.8689 L12.53,1.8544 L12.5632,1.826 L12.5796,1.8122 L12.5819,1.8102 L12.5961,1.798 L12.6128,1.7838 L12.6227,1.7756 L12.6292,1.7696 L12.646,1.7557 L12.6621,1.7419 L12.6632,1.741 L12.6788,1.728 L12.6953,1.7138 L12.7041,1.7067 L12.7117,1.7002 L12.7282,1.6863 L12.7446,1.6724 L12.7542,1.6642 L12.7661,1.654 L12.7786,1.6441 L12.7851,1.6384 L12.7905,1.6336 L12.803,1.6234 L12.8155,1.6132 L12.8254,1.6049 L12.8279,1.603 L12.8404,1.5922 L12.8532,1.5817 L12.8659,1.5712 L12.8753,1.5636 L12.8849,1.5559 L12.8943,1.548 L12.9036,1.5403 L12.9062,1.538 L12.913,1.5327 L12.922,1.5247 L12.9317,1.5171 L12.941,1.5094 L12.9464,1.5049 L12.9504,1.5018 L12.9597,1.4941 L12.9691,1.4862 L12.9785,1.4785 L12.9861,1.4723 L12.9867,1.472 L12.9938,1.466 L13.0167,1.4476 L13.0244,1.4414 C13.3988,1.1367 13.7665,0.8603 14.1302,0.6089 L21.4308,4.8237 L24.465,6.5752 L24.4698,6.578 L24.4673,6.5803 L24.448,6.597 L24.4284,6.614 L24.4092,6.6311 L24.3899,6.6481 L24.3822,6.6546 L24.3703,6.6651 L24.3505,6.6821 L24.3309,6.6991 L24.3114,6.7164 L24.2946,6.7308 L24.2915,6.734 L24.2717,6.751 L24.2518,6.7685 L24.2317,6.7861 L24.1779,6.8334 L24.16,6.849 L24.1243,6.8805 L24.1206,6.8836 L24.1064,6.8964 L24.0883,6.912 L24.0529,6.9434 L24.035,6.9593 L24.0339,6.9602 L24.0171,6.9749 L23.9993,6.9908 L23.9814,7.0064 L23.9638,7.022 L23.9474,7.0364 L23.946,7.0378 L23.9281,7.0537 L23.9103,7.0693 L23.8927,7.0849 L23.8748,7.1005 L23.8615,7.1127 L23.8573,7.1163 L23.8397,7.1322 L23.8218,7.1478 L23.804,7.1634 L23.7991,7.1679 L23.7688,7.1949 L23.7512,7.2107 L23.7337,7.2263 L23.7158,7.2419 L23.6982,7.2578 L23.69,7.2652 L23.6807,7.2737 L23.6631,7.2893 L23.6455,7.3049 L23.6279,7.3204 L23.6104,7.3363 L23.605,7.3414 L23.5928,7.3522 L23.5752,7.3678 L23.5579,7.3834 L23.5403,7.399 L23.5228,7.4148 L23.5199,7.4177 L23.5052,7.4307 L23.4879,7.4463 L23.4703,7.4619 L23.453,7.4775 L23.4357,7.4934 L23.4352,7.4936 L23.4182,7.5089 L23.4009,7.5248 L23.3833,7.5404 L23.366,7.556 L23.3507,7.5699 L23.3487,7.5719 L23.3311,7.5875 L23.3141,7.6031 L23.2966,7.6189 L23.2793,7.6345 L23.2665,7.6464 L23.262,7.6504 L23.2447,7.666 L23.2274,7.6816 L23.2101,7.6972 L23.1931,7.713 L23.1829,7.7224 L23.1758,7.7286 L23.1585,7.7445 L23.1412,7.7601 L23.1239,7.776 L23.1069,7.7916 C22.7401,8.1269 22.3807,8.4608 22.0306,8.7959 L22.0099,8.8157 L21.9889,8.8356 L21.9683,8.8557 L21.9592,8.8642 L21.9473,8.8758 L21.9056,8.9158 L21.8846,8.9359 L21.8801,8.9407 L21.8637,8.956 L21.8254,8.9932 L21.8007,9.0167 L21.7831,9.0337 L21.7659,9.0507 L21.748,9.0677 L21.7307,9.0847 L21.7222,9.0927 L21.7129,9.1017 L21.6956,9.1187 L21.678,9.1357 L21.6604,9.1528 L21.6437,9.1689 L21.6428,9.1698 L21.6255,9.1868 L21.608,9.2038 L21.5907,9.2208 L21.5657,9.2452 L21.5207,9.2888 L21.5034,9.3061 L21.4878,9.3211 L21.4858,9.3231 L21.4733,9.3353 L21.4609,9.3475 L21.4359,9.3719 L21.4234,9.3843 L21.411,9.3965 L21.4101,9.3974 L21.3361,9.4702 L21.333,9.4736 C20.6657,10.1344 20.0296,10.7949 19.4253,11.4596 C19.1852,11.7246 18.9536,11.9905 18.7297,12.2573 L18.7302,12.2578 C16.992,14.3311 15.7607,16.4602 15.0769,18.6233 L15.0767,18.6239 C15.0446,18.7262 15.0134,18.8283 14.9834,18.9306 L14.982,18.936 C14.9239,19.1361 14.8703,19.3368 14.8215,19.5372 L14.8145,19.5653 C14.7923,19.6574 14.7714,19.7492 14.751,19.8414 L14.7379,19.9031 C14.7189,19.9907 14.7008,20.0786 14.6838,20.1665 L14.6818,20.1767 C14.6637,20.27 14.6472,20.3632 14.6311,20.4568 L14.6214,20.5137 C14.6072,20.6002 14.5934,20.6869 14.5809,20.7737 L14.5698,20.8513 L14.5435,21.0526 L14.533,21.1354 C14.5233,21.2167 14.5151,21.2978 14.5072,21.3791 L14.4981,21.4735 L14.4811,21.6796 L14.4726,21.808 L14.4624,21.9829 L14.4576,22.0841 C14.4545,22.1595 14.4519,22.2349 14.4502,22.3106 L14.4477,22.4345 L14.4462,22.5864 L14.4474,22.7761 L14.4496,22.9107 L14.4533,23.0431 L14.4621,23.2631 L14.4698,23.3923 C14.6464,26.2992 15.8273,29.2399 18.1055,32.1664 C17.4736,32.8512 16.7854,33.5511 16.0438,34.2669 C15.2161,35.0662 14.3476,35.858 13.4405,36.6466 L11.6669,38.1889 L13.6962,39.3604 L24.0358,45.3299 L24.9517,45.8586 L25.8254,45.2576 C26.3016,44.9302 26.758,44.5819 27.2072,44.2097 C27.6492,43.8437 28.1169,43.4284 28.6146,42.967 L28.6407,42.9406 C28.8114,42.7745 28.9831,42.607 29.1555,42.4377 L22.5136,53.941 Z M20.3361,34.6756 C22.1071,36.4467 24.2944,38.2076 26.915,39.9469 C26.7214,40.138 26.5272,40.3273 26.3339,40.5156 L26.3333,40.515 C25.9061,40.9113 25.4889,41.2809 25.0705,41.6273 C24.9648,41.7149 24.8607,41.7997 24.7587,41.8813 L17.3722,37.6163 C17.7112,37.3028 18.042,36.9907 18.3646,36.6794 C19.0403,36.0269 19.6974,35.3599 20.3361,34.6756 L20.3361,34.6756 Z"
            id="Fill-7"
          />
        </g>
        <g id="Group-14" transform="translate(9.000000, 0.275600)" fill="#FF7500">
          <polygon
            id="Fill-9"
            points="268.7638 28.4022 268.7638 22.7451 259.2873 22.7451 259.2873 28.4022"
          />
          <path
            d="M300.2083,63.2043 C298.2858,63.9413 295.4948,64.1397 293.4491,64.1757 C290.0821,64.1757 286.5623,63.5096 284.0188,61.1441 C281.7542,58.975 280.9296,56.0287 280.9296,52.9619 L280.9296,28.4022 L272.8381,28.4022 L272.8381,22.7451 L280.9296,22.7451 L280.9296,11.6906 L289.8848,11.6906 L289.8848,22.7451 L299.6141,22.7451 L299.6141,28.4022 L289.8848,28.4022 L289.8848,51.9317 C289.8848,58.285 294.9747,59.1332 300.2083,57.662 L300.2083,63.2043 Z"
            id="Fill-10"
          />
          <polygon
            id="Fill-11"
            points="268.7627 32.4949 268.7627 63.9132 259.2873 63.9132 259.2873 32.4949"
          />
          <path
            d="M244.1302,28.4022 L244.1302,63.9132 L234.3935,63.9132 L234.3935,28.4022 L227.3001,28.4022 L227.3001,22.7451 L234.3935,22.7451 L234.3935,18.0297 C234.3935,12.7569 235.9823,7.8754 240.211,4.4954 C246.0357,-0.1277 254.0852,0.0529 261.0278,1.3906 C261.8544,1.5646 262.5656,1.7392 263.1898,1.9416 L263.1898,7.5129 C261.5789,7.1353 260.0419,6.8311 258.5617,6.6131 C249.8355,5.3268 244.1302,8.7893 244.1302,18.1598 L244.1302,22.7451 L255.2494,22.7451 L255.2494,28.4022 L252.4343,28.4022 L244.1302,28.4022 Z"
            id="Fill-12"
          />
          <path
            d="M7.4911,0.5487 C13.1874,3.8851 17.6721,7.3765 20.9288,10.9921 C24.2654,14.7256 26.5782,18.4311 27.8918,22.122 C29.1972,25.8312 29.6068,29.4145 29.134,32.9031 C28.6521,36.4126 27.5477,39.6339 25.8339,42.6024 C25.2094,43.6841 24.5087,44.77 23.7082,45.8472 C22.8957,46.9414 22.0513,47.9686 21.1536,48.9636 C20.2944,49.958 19.3723,50.8676 18.474,51.741 C17.5488,52.5987 16.7057,53.31 15.8749,53.8814 L5.5352,47.9117 C7.4106,46.2814 9.0958,44.6663 10.5795,43.0301 C16.5144,36.49 17.3818,29.3643 11.8999,22.323 C12.5314,21.6382 13.22,20.9383 13.9612,20.2228 C14.7889,19.4237 15.6575,18.6317 16.5646,17.8431 L18.3359,16.3037 L16.3024,15.1295 L5.9627,9.1601 L5.0545,8.6359 L4.1862,9.2323 C3.6834,9.5779 3.2264,9.9249 2.7975,10.28 C2.3556,10.646 1.8882,11.0613 1.3904,11.523 L1.3641,11.5494 L0.8504,12.0511 L7.4911,0.5487 Z"
            id="Fill-13"
          />
        </g>
      </g>
    </g>
  </svg>